<svg id="Слой_1" data-name="Слой 1" xmlns="http://www.w3.org/2000/svg" viewBox="0 0 21.21 19"><defs><style>.cls-1{fill:#ed9f03;}</style></defs><title>cart</title><path class="cls-1" d="M18.65,11.61a.83.83,0,0,0,.81-.65l1.73-7.58A.82.82,0,0,0,21,2.67a.84.84,0,0,0-.66-.32H5.51L5.2.68A.85.85,0,0,0,4.37,0H.84a.84.84,0,0,0,0,1.68H3.68l2.39,12.6a.92.92,0,0,0,.11.29A2.26,2.26,0,1,0,8.31,15h7.93a2.27,2.27,0,1,0,2.38-.29.8.8,0,0,0,.21-.55.84.84,0,0,0-.84-.84H7.59L7.27,11.6H18.65ZM6.88,17.82A1.09,1.09,0,1,1,8,16.73,1.09,1.09,0,0,1,6.88,17.82Zm10.79,0a1.09,1.09,0,1,1,1.09-1.09A1.09,1.09,0,0,1,17.67,17.82ZM7,9.92,5.83,4H19.32L18,9.93Z"/></svg>