<svg id="Слой_1" data-name="Слой 1" xmlns="http://www.w3.org/2000/svg" viewBox="0 0 33.37 19"><defs><style>.cls-1{fill:#ed9f03;}</style></defs><title>delivery</title><path class="cls-1" d="M33.26,9.39,30.37,3.8a1,1,0,0,0-.86-.52H23.34l.37-2.15A1,1,0,0,0,23.5.34,1,1,0,0,0,22.76,0H3.47a1,1,0,0,0,0,1.93H21.61L21.25,4s0,.06,0,.09l-2,11.32H11.57l-.19,0a2.6,2.6,0,0,0-4.85,0l-.16,0H1a1,1,0,0,0,0,1.93H6.37l.16,0a2.6,2.6,0,0,0,4.85,0l.19,0h12l.19,0a2.6,2.6,0,0,0,4.85,0l.17,0h2.51l.18,0h.06l.11,0,.07,0,.09-.05.06,0a.27.27,0,0,0,.08-.07.12.12,0,0,0,.05-.05A.27.27,0,0,0,32,17l0-.06a.41.41,0,0,0,0-.09l0-.07a.42.42,0,0,0,0-.1s0,0,0-.07v0L33.36,10A1,1,0,0,0,33.26,9.39ZM9,17.65a1.26,1.26,0,1,1,1.25-1.25A1.26,1.26,0,0,1,9,17.65Zm12.25-2.22L23,5.21h5.93L31.4,10l-1,5.44h-1.7l-.17,0a2.6,2.6,0,0,0-4.85,0l-.19,0Zm4.94,2.22A1.26,1.26,0,1,1,27.4,16.4,1.26,1.26,0,0,1,26.15,17.65Z"/><path class="cls-1" d="M1.93,12.35H4.82a1,1,0,1,0,0-1.93H1.93a1,1,0,1,0,0,1.93Z"/><path class="cls-1" d="M2.7,7.14H5.79a1,1,0,0,0,0-1.93H2.7a1,1,0,0,0,0,1.93Z"/></svg>