<svg id="Слой_1" data-name="Слой 1" xmlns="http://www.w3.org/2000/svg" viewBox="0 0 14 18.29"><defs><style>.cls-1{fill:#fff;}</style></defs><title>document</title><path class="cls-1" d="M13,18.29H1a1,1,0,0,1-1-1V1A1,1,0,0,1,1,0H9.57a1,1,0,0,1,.71.29l3.43,3.43a1,1,0,0,1,.29.71V17.29A1,1,0,0,1,13,18.29Zm-11-2H12V4.84L9.16,2H2Z"/><path class="cls-1" d="M10,9.14H4a.5.5,0,0,1-.5-.5.5.5,0,0,1,.5-.5h6a.5.5,0,0,1,.5.5A.5.5,0,0,1,10,9.14Z"/><path class="cls-1" d="M10,11.14H4a.5.5,0,0,1-.5-.5.5.5,0,0,1,.5-.5h6a.5.5,0,0,1,.5.5A.5.5,0,0,1,10,11.14Z"/><path class="cls-1" d="M10,13.14H4a.5.5,0,0,1-.5-.5.5.5,0,0,1,.5-.5h6a.5.5,0,0,1,.5.5A.5.5,0,0,1,10,13.14Z"/></svg>