<svg id="Слой_1" data-name="Слой 1" xmlns="http://www.w3.org/2000/svg" viewBox="0 0 13.12 17"><defs><style>.cls-1{fill:#ed9f03;}</style></defs><title>location</title><path class="cls-1" d="M6.56,17a1.47,1.47,0,0,1-1.22-.62c-.52-.77-1.2-1.74-2-2.91h0c-1-1.48-1.68-2.45-2-3a9.25,9.25,0,0,1-1-2A6.1,6.1,0,0,1,0,6.56,6.42,6.42,0,0,1,.89,3.27,6.78,6.78,0,0,1,3.27.89a6.53,6.53,0,0,1,6.58,0,6.78,6.78,0,0,1,2.38,2.38,6.4,6.4,0,0,1,.89,3.29,6.1,6.1,0,0,1-.28,1.94,8.82,8.82,0,0,1-1,2c-.33.51-1,1.48-2,3l-2,2.91A1.44,1.44,0,0,1,6.56,17Zm0-1.49h0l2-2.89c1-1.44,1.66-2.42,2-2.92A7.8,7.8,0,0,0,11.43,8a5,5,0,0,0,.2-1.48A4.85,4.85,0,0,0,11,4,5.26,5.26,0,0,0,9.09,2.17a4.85,4.85,0,0,0-2.53-.68A4.85,4.85,0,0,0,4,2.17,5.34,5.34,0,0,0,2.17,4a4.85,4.85,0,0,0-.68,2.53A4.68,4.68,0,0,0,1.7,8,8.16,8.16,0,0,0,2.55,9.7c.32.5,1,1.48,2,2.92Z"/><path class="cls-1" d="M8.27,8.27A2.3,2.3,0,0,0,9,6.56a2.3,2.3,0,0,0-.71-1.71,2.33,2.33,0,0,0-1.71-.71A2.42,2.42,0,0,0,4.14,6.56a2.33,2.33,0,0,0,.71,1.71A2.3,2.3,0,0,0,6.56,9,2.3,2.3,0,0,0,8.27,8.27Z"/></svg>