<svg id="Слой_1" data-name="Слой 1" xmlns="http://www.w3.org/2000/svg" viewBox="0 0 19 19"><defs><style>.cls-1{fill:#ed9f03;}</style></defs><title>phone</title><path class="cls-1" d="M2.44,19a1.72,1.72,0,0,1-1-.32,1.48,1.48,0,0,1-.6-1L0,14.19a1.64,1.64,0,0,1,.14-1.1A1.6,1.6,0,0,1,1,12.32L4.8,10.7a1.55,1.55,0,0,1,1-.07,1.77,1.77,0,0,1,.83.49l.06.06L8,12.7a11.24,11.24,0,0,0,2.73-2A11.88,11.88,0,0,0,12.7,8l-1.58-1.3a1.77,1.77,0,0,1-.49-.83,1.59,1.59,0,0,1,.07-1L12.33,1a1.54,1.54,0,0,1,.76-.83A1.54,1.54,0,0,1,14.2.05l3.48.8a1.48,1.48,0,0,1,1,.6,1.72,1.72,0,0,1,.32,1,16.39,16.39,0,0,1-2.25,8.35,16.74,16.74,0,0,1-5.95,6A16.43,16.43,0,0,1,2.44,19Zm-.78-5.16.81,3.51a14.74,14.74,0,0,0,7.49-2A15,15,0,0,0,15.33,10a14.66,14.66,0,0,0,2-7.49h0l-3.51-.8L12.23,5.42l0,0,2.49,2-.27.58a13.53,13.53,0,0,1-2.62,3.76,12.94,12.94,0,0,1-3.78,2.64l-.58.27-2-2.49,0,0Zm0,0h0Z"/></svg>