<svg id="Слой_1" data-name="Слой 1" xmlns="http://www.w3.org/2000/svg" viewBox="0 0 17 17"><defs><style>.cls-1{fill:#fff;}</style></defs><title>user</title><path class="cls-1" d="M8.5,0a8.19,8.19,0,0,1,4.25,1.15,8.53,8.53,0,0,1,3.1,3.1A8.19,8.19,0,0,1,17,8.5a8.19,8.19,0,0,1-1.15,4.25,8.53,8.53,0,0,1-3.1,3.1A8.19,8.19,0,0,1,8.5,17a8.19,8.19,0,0,1-4.25-1.15,8.53,8.53,0,0,1-3.1-3.1A8.19,8.19,0,0,1,0,8.5,8.19,8.19,0,0,1,1.15,4.25a8.53,8.53,0,0,1,3.1-3.1A8.19,8.19,0,0,1,8.5,0Zm0,1.65a6.63,6.63,0,0,0-3.43.92,7,7,0,0,0-2.5,2.5,6.65,6.65,0,0,0-.92,3.45A6.58,6.58,0,0,0,2.6,12a3.26,3.26,0,0,1,.69-1.3,3.31,3.31,0,0,1,1.47-.93,4.31,4.31,0,0,1-.65-2.29A4.42,4.42,0,0,1,4.7,5.19,4.26,4.26,0,0,1,6.29,3.6,4.32,4.32,0,0,1,8.5,3a4.32,4.32,0,0,1,2.21.58A4.26,4.26,0,0,1,12.3,5.19a4.47,4.47,0,0,1-.06,4.54,3.31,3.31,0,0,1,1.47.93A3.26,3.26,0,0,1,14.4,12a6.58,6.58,0,0,0,.95-3.44,6.65,6.65,0,0,0-.92-3.45,7,7,0,0,0-2.5-2.5A6.63,6.63,0,0,0,8.5,1.65ZM4.11,13.78a7.13,7.13,0,0,0,2,1.16,6.6,6.6,0,0,0,2.35.41,6.6,6.6,0,0,0,2.35-.41,7.13,7.13,0,0,0,2-1.16v-1a1.6,1.6,0,0,0-.31-.94,1.44,1.44,0,0,0-.82-.57l-.86-.24a4.19,4.19,0,0,1-2.4.72,4.19,4.19,0,0,1-2.4-.72l-.86.24a1.44,1.44,0,0,0-.82.57,1.6,1.6,0,0,0-.31.94ZM11.24,7.4A2.75,2.75,0,0,0,8.5,4.66,2.75,2.75,0,0,0,5.76,7.4,2.75,2.75,0,0,0,8.5,10.15,2.75,2.75,0,0,0,11.24,7.4Z"/></svg>