<svg id="Слой_1" data-name="Слой 1" xmlns="http://www.w3.org/2000/svg" viewBox="0 0 42 42"><defs><style>.cls-1{fill:#e0e0e0;}</style></defs><title>user-private</title><path class="cls-1" d="M21,41a19.78,19.78,0,0,1-8.3-1.82L12.25,39c-.49-.24-1-.5-1.43-.77L10.47,38c-.53-.33-1.05-.69-1.54-1.06l-.14-.11a19.21,19.21,0,0,1-2-1.75,1,1,0,0,0,.63.23,1,1,0,0,0,.45-.1c.87-.44,1.76-.8,2.51-1.1,1.43-.57,2.93-1.07,4.37-1.55l.57-.19.32-.12.16-.06a2.57,2.57,0,0,0,1.82-2.46v-.45a12.15,12.15,0,0,0-.07-2.32,2.75,2.75,0,0,0-.64-1.48,6.37,6.37,0,0,1-1.31-3.3,6.77,6.77,0,0,0-.69-2,5.45,5.45,0,0,1-.65-2.54v-.05a5.45,5.45,0,0,0,.1-3.11l-.05-.3a5.5,5.5,0,0,1,3.07-5.76,9.18,9.18,0,0,1,3.74-.87A7.44,7.44,0,0,1,25.54,9a5.25,5.25,0,0,1,2.21,4.07,6.7,6.7,0,0,1-.1,1.37l0,.36a7.94,7.94,0,0,0,.09,2.76A4,4,0,0,1,27.12,20a10.12,10.12,0,0,0-.83,2.54,5.86,5.86,0,0,1-1.22,2.89,3,3,0,0,0-.71,2v.26a19,19,0,0,0,0,2.25A2.49,2.49,0,0,0,26,32.06c.72.31,1.45.54,2.16.77l1.15.39a46,46,0,0,1,4.83,2,1,1,0,0,0,.44.1,1,1,0,0,0,.72-.3A19.88,19.88,0,0,0,41,21a19.85,19.85,0,0,1-7.79,15.77l-.12.1c-.5.38-1,.74-1.55,1.07l-.36.21c-.45.27-.94.53-1.43.77l-.45.22c-.3.14-.6.27-.91.39A19.83,19.83,0,0,1,21,41ZM41,21Zm0,0ZM1,21Zm40,0ZM1,21Zm40,0ZM1,21Zm40,0A20,20,0,0,0,1,21a20,20,0,0,1,40,0Z"/><path class="cls-1" d="M21.15,8.5A6.37,6.37,0,0,1,25,9.79a4.26,4.26,0,0,1,1.79,3.33,5.73,5.73,0,0,1-.09,1.17l-.05.36a9.15,9.15,0,0,0,.1,3.1,2.94,2.94,0,0,1-.48,1.81,10.85,10.85,0,0,0-.92,2.8,4.92,4.92,0,0,1-1,2.42,4,4,0,0,0-1,2.64v.28a14.59,14.59,0,0,0,.05,2.37A3.46,3.46,0,0,0,25.59,33c.76.32,1.51.57,2.23.81l1.13.37c1.38.5,2.73,1,4,1.57l-.39.32-.09.06c-.47.36-1,.7-1.47,1l-.34.2a14.67,14.67,0,0,1-1.36.73l-.11.06-.32.15c-.28.13-.57.26-.86.37a18.8,18.8,0,0,1-14.9-.37l-.32-.15-.11,0c-.47-.23-.93-.48-1.36-.74l-.34-.2c-.49-.31-1-.65-1.45-1l-.09-.07,0,0-.35-.28c.6-.27,1.2-.51,1.72-.72,1.4-.56,2.82-1,4.32-1.53l.57-.19.36-.14.14,0a3.57,3.57,0,0,0,2.48-3.38V29.3a13.5,13.5,0,0,0-.08-2.51,3.71,3.71,0,0,0-.89-2A5.56,5.56,0,0,1,16.62,22a8.2,8.2,0,0,0-.79-2.31,4.44,4.44,0,0,1-.54-2,6.62,6.62,0,0,0,.09-3.46l-.05-.3a4.46,4.46,0,0,1,2.49-4.68,8.17,8.17,0,0,1,3.33-.78M21,0A21,21,0,0,0,5.66,35.31h0a21.16,21.16,0,0,0,2.52,2.3l.15.11c.52.39,1.05.76,1.61,1.11l.37.22c.49.29,1,.56,1.51.81l.47.23a20.82,20.82,0,0,0,16.47.41h0l.95-.41.48-.23q.76-.37,1.5-.81c.13-.07.25-.15.37-.23a16.78,16.78,0,0,0,1.63-1.12l.13-.1A21,21,0,0,0,21,0ZM7.44,34.29a19,19,0,1,1,27.12,0,45.15,45.15,0,0,0-4.94-2c-1.08-.39-2.19-.69-3.24-1.14a1.5,1.5,0,0,1-1-1.29,18.9,18.9,0,0,1,0-2.38,2,2,0,0,1,.46-1.35,6.77,6.77,0,0,0,1.45-3.36A8.63,8.63,0,0,1,28,20.47a4.8,4.8,0,0,0,.66-3.13,7.16,7.16,0,0,1-.08-2.44A10.48,10.48,0,0,0,28.75,13a6.26,6.26,0,0,0-2.63-4.8,8.32,8.32,0,0,0-5-1.67,10.17,10.17,0,0,0-4.14,1,6.5,6.5,0,0,0-3.66,6.84,5.08,5.08,0,0,1,0,3,.8.8,0,0,0,0,.31,6.55,6.55,0,0,0,.76,3,5.93,5.93,0,0,1,.6,1.73,7.33,7.33,0,0,0,1.54,3.79,1.83,1.83,0,0,1,.4,1,15.08,15.08,0,0,1,.05,2.6,1.59,1.59,0,0,1-1.16,1.55L15,31.4c-1.67.56-3.35,1.11-5,1.76-.87.35-1.74.71-2.59,1.13Z"/></svg>