<?xml version="1.0" encoding="utf-8"?>
<!-- Generator: Adobe Illustrator 22.0.1, SVG Export Plug-In . SVG Version: 6.00 Build 0)  -->
<svg version="1.1" id="Layer_1" xmlns="http://www.w3.org/2000/svg" xmlns:xlink="http://www.w3.org/1999/xlink" x="0px" y="0px"
	 viewBox="0 0 504 504" style="enable-background:new 0 0 504 504;" xml:space="preserve">
<style type="text/css">
	.st0{fill:#FFA000;}
	.st1{fill:#2C9984;}
	.st2{fill:#4CDBC4;}
	.st3{fill:#ACB3BA;}
	.st4{fill:#E6E9EE;}
</style>
<circle class="st0" cx="252" cy="252" r="252"/>
<rect x="167.4" y="61.2" transform="matrix(0.5922 -0.8058 0.8058 0.5922 -73.6525 292.3171)" class="st1" width="169.1" height="315.5"/>
<path class="st2" d="M103.9,186.1l72.4-98.6c2,1.5,4.8,1,6.2-1l216.6,159.1c-1.5,2-1,4.8,1,6.2l-72.4,98.6c-2-1.5-4.8-1-6.2,1
	L104.9,192.3C106.3,190.3,105.9,187.5,103.9,186.1z"/>
<g>
	<ellipse transform="matrix(0.5922 -0.8058 0.8058 0.5922 -73.7048 292.3571)" class="st1" cx="252" cy="219" rx="56.5" ry="49.9"/>
	<circle class="st1" cx="325.9" cy="273.3" r="21.9"/>
	<circle class="st1" cx="178.1" cy="164.7" r="21.9"/>
</g>
<rect x="101.2" y="238.1" class="st3" width="315.5" height="169.1"/>
<path class="st4" d="M120.1,383.8V261.5c2.5,0,4.5-2,4.5-4.5h268.7c0,2.5,2,4.5,4.5,4.5v122.3c-2.5,0-4.5,2-4.5,4.5H124.6
	C124.6,385.8,122.6,383.8,120.1,383.8z"/>
<g>
	<ellipse class="st3" cx="255.5" cy="322.6" rx="49.9" ry="56.5"/>
	<circle class="st3" cx="347.2" cy="322.6" r="21.9"/>
	<circle class="st3" cx="163.8" cy="322.6" r="21.9"/>
</g>
</svg>
