<svg id="Layer_1" data-name="Layer 1" xmlns="http://www.w3.org/2000/svg" xmlns:xlink="http://www.w3.org/1999/xlink" viewBox="0 0 432.47 161.46"><defs><style>.cls-1{fill:#e3a133;}.cls-2{isolation:isolate;}.cls-3{fill:url(#linear-gradient);}.cls-4{fill:url(#linear-gradient-2);}.cls-5{fill:url(#linear-gradient-3);}.cls-6{fill:url(#linear-gradient-4);}.cls-7{fill:url(#linear-gradient-5);}.cls-8{fill:url(#linear-gradient-6);}.cls-9{fill:#eddc36;}.cls-10{fill:url(#linear-gradient-7);}.cls-11{fill:#fff;}.cls-12{fill:#d05c2d;}.cls-13{fill:#262424;}</style><linearGradient id="linear-gradient" x1="0.83" y1="121.74" x2="45.25" y2="121.74" gradientUnits="userSpaceOnUse"><stop offset="0" stop-color="#e3a133"/><stop offset="1" stop-color="#d05c2d"/></linearGradient><linearGradient id="linear-gradient-2" x1="53.87" y1="124.95" x2="98.29" y2="124.95" xlink:href="#linear-gradient"/><linearGradient id="linear-gradient-3" x1="20.44" y1="16.44" x2="79.08" y2="16.44" xlink:href="#linear-gradient"/><linearGradient id="linear-gradient-4" x1="37.03" y1="161.46" x2="37.03" y2="20.38" gradientUnits="userSpaceOnUse"><stop offset="0" stop-color="#e3a133"/><stop offset="1" stop-color="#eddc36"/></linearGradient><linearGradient id="linear-gradient-5" x1="10.86" y1="70.87" x2="55.05" y2="70.87" xlink:href="#linear-gradient"/><linearGradient id="linear-gradient-6" x1="10.87" y1="53.58" x2="55.06" y2="53.58" xlink:href="#linear-gradient"/><linearGradient id="linear-gradient-7" x1="0.04" y1="35.57" x2="55.08" y2="35.57" xlink:href="#linear-gradient"/></defs><title>logotype</title><polygon class="cls-1" points="78.88 119.42 79.08 12.51 45.45 10.47 20.44 20.38 20.42 30.79 0.04 38.69 0 81.82 20.32 83.06 20.26 118.4 0.83 126.09 0.78 157.06 73.23 161.46 98.23 151.55 98.29 120.58 78.88 119.42"/><g class="cls-2"><polygon class="cls-3" points="0.83 126.09 25.83 116.2 45.25 117.38 20.24 127.28 0.83 126.09"/><polygon class="cls-4" points="53.87 129.31 78.88 119.42 98.29 120.58 73.28 130.49 53.87 129.31"/><polygon class="cls-1" points="73.28 130.49 98.29 120.58 98.23 151.55 73.23 161.46 73.28 130.49"/><polygon class="cls-1" points="54.07 22.4 79.08 12.51 78.88 119.42 53.87 129.31 54.07 22.4"/><polygon class="cls-5" points="20.44 20.38 45.45 10.47 79.08 12.51 54.07 22.4 20.44 20.38"/><polygon class="cls-6" points="54.07 22.4 53.87 129.31 73.28 130.49 73.23 161.46 0.78 157.06 0.83 126.09 20.24 127.28 20.44 20.38 54.07 22.4"/></g><g class="cls-2"><polygon class="cls-1" points="10.87 64.46 32.32 56.14 32.31 66.02 10.86 74.34 10.87 64.46"/><polygon class="cls-1" points="10.88 47.23 32.33 38.91 32.33 48.73 10.87 57.05 10.88 47.23"/><polygon class="cls-7" points="10.86 74.34 32.31 66.02 55.05 67.42 33.6 75.73 10.86 74.34"/><polygon class="cls-1" points="33.6 75.73 55.05 67.42 55.04 75.56 33.59 83.88 33.6 75.73"/><polygon class="cls-8" points="10.87 57.05 32.33 48.73 55.06 50.12 33.61 58.43 10.87 57.05"/><polygon class="cls-1" points="33.61 58.43 55.06 50.12 55.06 57.53 33.6 65.86 33.61 58.43"/><polygon class="cls-9" points="33.63 40.75 33.62 48.62 10.88 47.23 10.87 57.05 33.61 58.43 33.6 65.86 10.87 64.46 10.86 74.34 33.6 75.73 33.59 83.88 0 81.82 0.04 38.69 33.63 40.75"/><polygon class="cls-1" points="33.63 40.75 55.08 32.44 55.08 40.31 33.62 48.62 33.63 40.75"/><polygon class="cls-10" points="0.04 38.69 21.49 30.38 55.08 32.44 33.63 40.75 0.04 38.69"/></g><path class="cls-11" d="M7.6,148.57l-2.87-.2V136.48l6.67.4v2.27l-3.8-.24v2.34l3.39.22v2.26L7.6,143.5Zm7.89-3.45v.75c0,1.08.41,1.39,1.11,1.44s.94-.37.94-1.11-.36-1.14-1.09-1.64l-1.72-1.18A3.89,3.89,0,0,1,13,140c0-2.12,1.39-3.2,3.53-3.07a3.56,3.56,0,0,1,3.56,3.89V141l-2.59-.17v-.25c0-1-.37-1.49-1-1.53a.76.76,0,0,0-.87.83,1.61,1.61,0,0,0,.92,1.49l1.77,1.2A3.66,3.66,0,0,1,20.13,146c0,2.49-1.34,3.59-3.6,3.43-2.48-.16-3.65-1.39-3.65-3.62V145Zm10.94,4.73-2.63-.18v-9.76l-2.26-.13V137.5l7,.42v2.29l-2.11-.13ZM30.07,138l6.66.4v2.3l-3.8-.24v2.38l3.4.22v2.29l-3.4-.22V148l3.8.25v2.29l-6.66-.45Zm11.17,10.39,3.39.23v2.44l-6.26-.43V138.52l2.87.18Zm5.61,0,2.6.17v2.85l-2.6-.18ZM55,151.78l-2.87-.2V139.36l4.51.27a3.09,3.09,0,0,1,3.13,3.28c0,1.87-.51,2.55-1.63,3a2.21,2.21,0,0,1,1.5,2.29v2.34c0,.89.26,1.17.51,1.19v.39L57.59,152c-.72-.05-.86-.71-.86-1.65v-2c0-.79-.25-1.2-1.14-1.26L55,147Zm0-7,.73,0c.69,0,1.18-.35,1.18-1.46s-.49-1.57-1.2-1.62l-.71,0Zm9.6-4.69v9.16c0,.81.31,1.21.94,1.25s1-.33,1-1.12v-9.17l2.87.17v8.7c0,3-1.41,3.85-3.83,3.68s-3.81-1.2-3.81-4.18v-8.66Z"/><path d="M127.49,104c-.83-4.63-3.45-6-5.41-6-4,0-4.74,3-5.12,4.5h-4.77a9.48,9.48,0,0,1,9.89-9c5.91,0,10.59,4.49,10.59,13.32s-4.43,13.26-10.53,13.26c-5.75,0-9-3.83-10-9.33H117c.57,3.1,2.46,4.88,5.09,4.88,3.63,0,5.27-3.41,5.62-7.35H121V104Zm28-9.77v25.25h-4.78V98.62h-6.47V109.4c0,6.54-1.45,10.78-6,10.78a9.59,9.59,0,0,1-2.91-.38v-4a4.26,4.26,0,0,0,1.43.21c2.15,0,2.68-1.67,2.68-7.13V94.27Zm22.16,0v4.35H165.45v5.2H176.6v4.36H165.45v7h12.67v4.35H160.67V94.27Zm9.7,10.25,8.75-10.25h6.2l-9.36,10.33,9.9,14.92h-6.17l-7.08-11.1L187.32,111v8.56h-4.77V94.27h4.77Zm28.58,15h-4.78V98.62H204.2V94.27h18.61v4.35H215.9Zm15.14,0h-4.78V94.27h10.49c4.43,0,7.09,3.09,7.09,8.06,0,2.27-1.14,8.08-7.3,8.08H231Zm0-13.46h4.45c3.16,0,3.57-2.37,3.57-3.94,0-2.46-1.23-3.5-4.2-3.5H231Zm22,5.81h0l9.13-17.6h5.37v25.25H262.8v-18h-.06l-9.36,18h-5.12V94.27H253Zm24.56-17.6v7.4c0,2.43,1.62,3.38,3.54,3.38a30.61,30.61,0,0,0,4.74-.39V94.27h4.78v25.25h-4.78V109a32,32,0,0,1-6,.42c-3.7,0-7-2.1-7-7.83v-7.3Zm35.22,0v4.35H300.64v5.2H311.8v4.36H300.64v7h12.68v4.35H295.87V94.27Zm19.78,8.28c-.37-1.54-1.13-4.5-5.08-4.5-2.31,0-5.79,1.81-5.79,9,0,4.52,1.74,8.73,5.79,8.73,2.65,0,4.51-1.78,5.08-4.88h4.77c-.94,5.5-4.2,9.33-9.95,9.33-6.1,0-10.46-4.56-10.46-13.26s4.61-13.32,10.52-13.32a9.48,9.48,0,0,1,9.89,9Zm13.78,2,8.76-10.25h6.2L352,104.6l9.9,14.92H355.7l-7.08-11.1L346.37,111v8.56h-4.76V94.27h4.76Zm23.43,7.35h0L379,94.27h5.37v25.25h-4.78v-18h-.06l-9.35,18H365V94.27h4.77Zm24.52,0h.07l9.1-17.6h5.38v25.25h-4.78v-18H404l-9.35,18h-5.13V94.27h4.77ZM397,97.08h1.58l2.86-6.94H397.3ZM161.64,11.49h37.08V25.28H177.6v14.3h18.91v13.8H177.6V70.52h21.12v13.8H161.64ZM392.49,0h-8l-.62,13.41H387ZM112.19,84.32H129v-59h11v59h16.79V11.49H112.19ZM408.85,28V11.49h-16l-11.5,36.74V11.49H365.09V84.32h16.3l11.27-34v34h16.19V78.14h0V28ZM248.36,33.7c0,18-10.48,22.21-20.38,22.21h-7.57V84.32H203.62V11.49H228C237.68,11.49,248.36,15.14,248.36,33.7Zm-16.79-.21c0-7.19-3.59-8.92-8.44-8.92h-2.72V42.83h3C227.59,42.83,231.57,40.7,231.57,33.49Zm111.83-22h16.79V84.32H343.4V69.21C341,81.61,332,84.32,323.67,84.32H299.3V11.49h16.79V39.58h7.58c8.45,0,17.32,3.37,19.73,15.54ZM327.26,62.3c0-7.3-3.79-9.63-8-9.63h-3.21V71.23H319C323.86,71.23,327.26,69.51,327.26,62.3Zm-31.11.51c0,13.6-7,21.51-21.25,21.51H251.51V11.49H278.3c8.15,0,17.18,5.17,17.18,18.25,0,9.94-5.82,14.61-9.52,15.42C292.47,48,296.15,52.67,296.15,62.81ZM267.72,39.58h4.95c4.75,0,6.6-2.43,6.6-8.21,0-4.27-1.85-6.8-6.6-6.8h-4.95ZM279.66,62.1c0-6.08-1.85-9.43-7.77-9.43h-4.17V71.23h3.78C277.81,71.23,279.66,68.69,279.66,62.1Z"/><path class="cls-12" d="M120.56,151a7.74,7.74,0,0,1-2.81-.51,6.53,6.53,0,0,1-2.31-1.53,7.13,7.13,0,0,1-1.58-2.5,9.75,9.75,0,0,1-.57-3.47,9.42,9.42,0,0,1,.6-3.47A7.64,7.64,0,0,1,115.5,137a6.8,6.8,0,0,1,2.35-1.61,7.32,7.32,0,0,1,2.83-.55,5.84,5.84,0,0,1,2.71.61,7.48,7.48,0,0,1,2,1.43l-1.87,2.26a5.85,5.85,0,0,0-1.26-.9,3.08,3.08,0,0,0-1.5-.35,3.24,3.24,0,0,0-1.5.35,3.51,3.51,0,0,0-1.22,1,4.77,4.77,0,0,0-.82,1.59,6.85,6.85,0,0,0-.3,2.11,6,6,0,0,0,1,3.75A3.32,3.32,0,0,0,120.7,148a3.48,3.48,0,0,0,1.72-.42,5.23,5.23,0,0,0,1.33-1.05l1.87,2.21A6.33,6.33,0,0,1,120.56,151Z"/><path class="cls-12" d="M135,151a6.66,6.66,0,0,1-2.38-.42,5.52,5.52,0,0,1-1.92-1.22,5.63,5.63,0,0,1-1.27-2,7.15,7.15,0,0,1-.46-2.64,6.58,6.58,0,0,1,.49-2.6,6,6,0,0,1,1.25-2,5.46,5.46,0,0,1,1.79-1.23,5.49,5.49,0,0,1,4.31,0,4.3,4.3,0,0,1,1.59,1.2,5.11,5.11,0,0,1,.94,1.81,7.79,7.79,0,0,1,.31,2.27,8.84,8.84,0,0,1,0,.91c0,.29-.07.5-.1.65h-7.13a2.9,2.9,0,0,0,1.07,1.9,3.31,3.31,0,0,0,2,.62,4.91,4.91,0,0,0,2.57-.8l1.17,2.14a7.64,7.64,0,0,1-2,1A7.07,7.07,0,0,1,135,151Zm-2.64-7.53h4.29a2.71,2.71,0,0,0-.45-1.63,1.78,1.78,0,0,0-1.54-.63,2.2,2.2,0,0,0-1.47.55A2.77,2.77,0,0,0,132.32,143.49Z"/><path class="cls-12" d="M144,155.15V138.83h2.88l.24,1.18h.1a6.53,6.53,0,0,1,1.57-1,4.14,4.14,0,0,1,1.81-.42,4.3,4.3,0,0,1,1.95.44A4.07,4.07,0,0,1,154,140.2a5.66,5.66,0,0,1,.92,1.91,8.71,8.71,0,0,1,.33,2.48,8.2,8.2,0,0,1-.42,2.73,6.3,6.3,0,0,1-1.13,2,4.94,4.94,0,0,1-1.61,1.26,4.22,4.22,0,0,1-1.86.43,3.54,3.54,0,0,1-1.49-.32,4.86,4.86,0,0,1-1.34-.92l.12,1.89v3.48Zm5.43-7a2,2,0,0,0,1.56-.82,4.42,4.42,0,0,0,.64-2.68c0-2.14-.68-3.22-2.06-3.22a2.84,2.84,0,0,0-2,1.08v4.88a3.16,3.16,0,0,0,1,.6A2.86,2.86,0,0,0,149.41,148.14Z"/><path class="cls-12" d="M159.65,150.74V138.83h5.07a10,10,0,0,1,1.87.16,4.49,4.49,0,0,1,1.51.53,2.8,2.8,0,0,1,1,1,2.74,2.74,0,0,1,.37,1.49,2.64,2.64,0,0,1-.45,1.46,2.55,2.55,0,0,1-1.54,1v.1a3.75,3.75,0,0,1,1.79.91,2.51,2.51,0,0,1,.66,1.87,3,3,0,0,1-.4,1.58,3.07,3.07,0,0,1-1.06,1.06,4.73,4.73,0,0,1-1.58.6,8.93,8.93,0,0,1-1.9.2Zm3.44-7.25h1.39a2.1,2.1,0,0,0,1.27-.3,1,1,0,0,0,.38-.85,1.07,1.07,0,0,0-.37-.87,2,2,0,0,0-1.26-.31h-1.41Zm0,4.92h1.7a2,2,0,0,0,1.36-.37,1.3,1.3,0,0,0,.39-1,1.11,1.11,0,0,0-.42-.88,2.06,2.06,0,0,0-1.35-.36h-1.68Z"/><path class="cls-12" d="M174.25,150.74V138.83h3.4v3.31c0,.6,0,1.26-.09,2s-.13,1.48-.19,2.22h.07q.28-.56.69-1.26c.28-.47.5-.89.68-1.24l3.09-5h3.22v11.91h-3.41v-3.32c0-.6,0-1.28.1-2s.13-1.47.21-2.21h-.09c-.2.37-.42.79-.69,1.27l-.68,1.23-3.1,5Z"/><path class="cls-12" d="M195.34,151a6.24,6.24,0,0,1-2.31-.42,5.21,5.21,0,0,1-1.86-1.21,5.59,5.59,0,0,1-1.25-1.95,7.13,7.13,0,0,1-.46-2.66,6.56,6.56,0,0,1,.51-2.65,5.58,5.58,0,0,1,1.35-1.95,5.93,5.93,0,0,1,2-1.22,6.69,6.69,0,0,1,2.35-.42,5,5,0,0,1,2,.36,5.93,5.93,0,0,1,1.52.92l-1.65,2.28a2.55,2.55,0,0,0-1.61-.7,2.49,2.49,0,0,0-2,.91,4.48,4.48,0,0,0,0,4.95,2.41,2.41,0,0,0,1.91.91,2.76,2.76,0,0,0,1.12-.25,5.91,5.91,0,0,0,1-.62l1.39,2.31a5.44,5.44,0,0,1-1.92,1.09A6.59,6.59,0,0,1,195.34,151Z"/><path class="cls-12" d="M210,150.74V138.83h3.52v4.3h3.82v-4.3h3.53v11.91h-3.53V146.2h-3.82v4.54Z"/><path class="cls-12" d="M231,151a5.84,5.84,0,0,1-2.19-.42,5.59,5.59,0,0,1-1.86-1.21,6,6,0,0,1-1.28-1.95,7.58,7.58,0,0,1,0-5.31,5.85,5.85,0,0,1,1.28-1.95,5.61,5.61,0,0,1,1.86-1.22,5.84,5.84,0,0,1,2.19-.42,5.78,5.78,0,0,1,2.17.42,5.67,5.67,0,0,1,1.85,1.22,5.85,5.85,0,0,1,1.28,1.95,7.58,7.58,0,0,1,0,5.31,6,6,0,0,1-1.28,1.95,5.65,5.65,0,0,1-1.85,1.21A5.78,5.78,0,0,1,231,151Zm0-2.85a1.8,1.8,0,0,0,1.63-.91,5.84,5.84,0,0,0,0-4.95,1.93,1.93,0,0,0-3.28,0,5.94,5.94,0,0,0,0,4.95A1.8,1.8,0,0,0,231,148.17Z"/><path class="cls-12" d="M241.13,150.74V138.83h5.07a10,10,0,0,1,1.87.16,4.49,4.49,0,0,1,1.51.53,2.8,2.8,0,0,1,1,1A2.74,2.74,0,0,1,251,142a2.64,2.64,0,0,1-.45,1.46,2.55,2.55,0,0,1-1.54,1v.1a3.75,3.75,0,0,1,1.79.91,2.51,2.51,0,0,1,.66,1.87,3,3,0,0,1-.4,1.58,3.07,3.07,0,0,1-1.06,1.06,4.73,4.73,0,0,1-1.58.6,8.93,8.93,0,0,1-1.9.2Zm3.44-7.25H246a2.1,2.1,0,0,0,1.27-.3,1,1,0,0,0,.38-.85,1.07,1.07,0,0,0-.37-.87,2,2,0,0,0-1.26-.31h-1.41Zm0,4.92h1.7a2,2,0,0,0,1.36-.37,1.3,1.3,0,0,0,.39-1,1.11,1.11,0,0,0-.42-.88,2.06,2.06,0,0,0-1.35-.36h-1.68Z"/><path class="cls-12" d="M260.84,151a5.92,5.92,0,0,1-2.19-.42,5.59,5.59,0,0,1-1.86-1.21,6,6,0,0,1-1.28-1.95,7.58,7.58,0,0,1,0-5.31,5.85,5.85,0,0,1,1.28-1.95,5.61,5.61,0,0,1,1.86-1.22,5.92,5.92,0,0,1,2.19-.42A5.78,5.78,0,0,1,263,139a5.57,5.57,0,0,1,1.85,1.22,5.85,5.85,0,0,1,1.28,1.95,7.58,7.58,0,0,1,0,5.31,6,6,0,0,1-1.28,1.95A5.54,5.54,0,0,1,263,150.6,5.78,5.78,0,0,1,260.84,151Zm0-2.85a1.8,1.8,0,0,0,1.63-.91,5.84,5.84,0,0,0,0-4.95,1.93,1.93,0,0,0-3.28,0,5.94,5.94,0,0,0,0,4.95A1.8,1.8,0,0,0,260.84,148.17Z"/><path class="cls-12" d="M271,150.74V138.83h8.18v2.76h-4.66v9.15Z"/><path class="cls-12" d="M287.55,151a5.83,5.83,0,0,1-2.18-.42,5.39,5.39,0,0,1-1.86-1.21,5.82,5.82,0,0,1-1.29-1.95,7.58,7.58,0,0,1,0-5.31,5.73,5.73,0,0,1,1.29-1.95,5.42,5.42,0,0,1,1.86-1.22,5.83,5.83,0,0,1,2.18-.42,5.74,5.74,0,0,1,2.17.42,5.57,5.57,0,0,1,1.85,1.22,5.7,5.7,0,0,1,1.28,1.95,7.58,7.58,0,0,1,0,5.31,5.8,5.8,0,0,1-1.28,1.95,5.54,5.54,0,0,1-1.85,1.21A5.74,5.74,0,0,1,287.55,151Zm0-2.85a1.8,1.8,0,0,0,1.63-.91,5.84,5.84,0,0,0,0-4.95,1.92,1.92,0,0,0-3.27,0,5.94,5.94,0,0,0,0,4.95A1.79,1.79,0,0,0,287.55,148.17Z"/><path class="cls-12" d="M310.47,155.15V152.1l.09-1.8a5.92,5.92,0,0,1-1,.51,3.26,3.26,0,0,1-1.16.21,4.06,4.06,0,0,1-1.9-.43,4.23,4.23,0,0,1-1.44-1.23,5.83,5.83,0,0,1-.92-2,9.53,9.53,0,0,1-.33-2.62,8.13,8.13,0,0,1,.4-2.61,6.61,6.61,0,0,1,1-2,4.5,4.5,0,0,1,1.47-1.23,3.58,3.58,0,0,1,1.69-.44,3.92,3.92,0,0,1,1.25.18,4,4,0,0,1,.95.47l-.09-1.73v-3.55h3.43v3.55l-.12,1.83a5.7,5.7,0,0,1,1.17-.53,4.05,4.05,0,0,1,1.28-.22A3.73,3.73,0,0,1,318,139a3.88,3.88,0,0,1,1.37,1.22,6.24,6.24,0,0,1,.88,1.91,9.51,9.51,0,0,1,.31,2.48,8.48,8.48,0,0,1-.4,2.73,6.57,6.57,0,0,1-1,2,4.54,4.54,0,0,1-1.49,1.26,3.84,3.84,0,0,1-3.89-.21l.12,1.72v3.05Zm-1.18-7a1.72,1.72,0,0,0,1.27-.52v-5.74a1.57,1.57,0,0,0-.67-.36,2.88,2.88,0,0,0-.69-.1,1.5,1.5,0,0,0-1.27.81,4.57,4.57,0,0,0-.53,2.51,5.2,5.2,0,0,0,.49,2.59A1.56,1.56,0,0,0,309.29,148.14Zm5.81,0a1.56,1.56,0,0,0,1.35-.82,5.23,5.23,0,0,0,.52-2.68c0-2.14-.6-3.22-1.8-3.22a2.26,2.26,0,0,0-.69.11,2.19,2.19,0,0,0-.7.4v5.73a1.88,1.88,0,0,0,.67.39A2.54,2.54,0,0,0,315.1,148.14Z"/><path class="cls-12" d="M330.12,151a5.83,5.83,0,0,1-2.18-.42,5.59,5.59,0,0,1-1.86-1.21,5.8,5.8,0,0,1-1.28-1.95,7.58,7.58,0,0,1,0-5.31,5.7,5.7,0,0,1,1.28-1.95,5.61,5.61,0,0,1,1.86-1.22,5.87,5.87,0,0,1,4.36,0,5.67,5.67,0,0,1,1.85,1.22,5.85,5.85,0,0,1,1.28,1.95,7.58,7.58,0,0,1,0,5.31,6,6,0,0,1-1.28,1.95,5.65,5.65,0,0,1-1.85,1.21A5.79,5.79,0,0,1,330.12,151Zm0-2.85a1.82,1.82,0,0,0,1.64-.91,5.84,5.84,0,0,0,0-4.95,1.8,1.8,0,0,0-1.64-.91,1.78,1.78,0,0,0-1.64.91,5.94,5.94,0,0,0,0,4.95A1.8,1.8,0,0,0,330.12,148.17Z"/><path class="cls-12" d="M340.25,155.15V138.83h2.88l.24,1.18h.1a6.53,6.53,0,0,1,1.57-1,4.14,4.14,0,0,1,1.81-.42,4.3,4.3,0,0,1,1.95.44,4.07,4.07,0,0,1,1.46,1.22,5.87,5.87,0,0,1,.93,1.91,9.09,9.09,0,0,1,.32,2.48,8.2,8.2,0,0,1-.42,2.73,6.3,6.3,0,0,1-1.13,2,4.94,4.94,0,0,1-1.61,1.26,4.22,4.22,0,0,1-1.86.43,3.54,3.54,0,0,1-1.49-.32,4.86,4.86,0,0,1-1.34-.92l.12,1.89v3.48Zm5.43-7a1.93,1.93,0,0,0,1.56-.82,4.42,4.42,0,0,0,.65-2.68c0-2.14-.69-3.22-2.07-3.22a2.84,2.84,0,0,0-2,1.08v4.88a3.16,3.16,0,0,0,1,.6A2.86,2.86,0,0,0,345.68,148.14Z"/><path class="cls-12" d="M355.92,150.74V138.83h4l1.48,4.08c.17.48.31.94.45,1.38s.27.87.39,1.29h.1c.14-.42.29-.85.43-1.29s.29-.9.43-1.38l1.4-4.08h4v11.91h-3.13v-3.05c0-.32,0-.71,0-1.15s.06-.92.1-1.4.08-.94.12-1.4.07-.85.1-1.19h-.09c-.18.53-.37,1.09-.58,1.68s-.4,1.15-.57,1.66l-1.4,3.81h-1.92l-1.41-3.81c-.18-.51-.37-1.07-.59-1.67l-.59-1.67h-.09c0,.34.06.73.1,1.19s.08.92.12,1.4.08,1,.11,1.4,0,.83,0,1.15v3.05Z"/><path class="cls-12" d="M376.68,151a3.85,3.85,0,0,1-1.47-.27,3.29,3.29,0,0,1-1.12-.77,3.71,3.71,0,0,1-.71-1.14,4,4,0,0,1-.25-1.42,3.32,3.32,0,0,1,1.59-2.92,11.57,11.57,0,0,1,5.11-1.42,2,2,0,0,0-.47-1.26,1.82,1.82,0,0,0-1.4-.47,4.32,4.32,0,0,0-1.53.29,11.91,11.91,0,0,0-1.62.79l-1.27-2.33A12.25,12.25,0,0,1,376,139a8.14,8.14,0,0,1,2.68-.44,4.55,4.55,0,0,1,3.51,1.31,5.82,5.82,0,0,1,1.22,4.07v6.82h-2.88l-.24-1.23h-.1a7.49,7.49,0,0,1-1.61,1.09A4.06,4.06,0,0,1,376.68,151Zm1.2-2.73a1.94,1.94,0,0,0,1-.27,5,5,0,0,0,.91-.74v-2.09a6.36,6.36,0,0,0-2.59.77,1.46,1.46,0,0,0-.72,1.2,1,1,0,0,0,.37.85A1.59,1.59,0,0,0,377.88,148.29Z"/><path class="cls-12" d="M390.39,150.74v-9.15h-3.51v-2.76h10.56v2.76h-3.52v9.15Z"/><path class="cls-12" d="M404.07,151a3.86,3.86,0,0,1-1.48-.27,3.16,3.16,0,0,1-1.11-.77,3.53,3.53,0,0,1-.71-1.14,3.82,3.82,0,0,1-.25-1.42,3.31,3.31,0,0,1,1.58-2.92,11.61,11.61,0,0,1,5.11-1.42,2,2,0,0,0-.47-1.26,1.8,1.8,0,0,0-1.4-.47,4.27,4.27,0,0,0-1.52.29,10.87,10.87,0,0,0-1.62.79l-1.28-2.33a12.33,12.33,0,0,1,2.42-1.12,8.13,8.13,0,0,1,2.67-.44,4.57,4.57,0,0,1,3.52,1.31,5.82,5.82,0,0,1,1.21,4.07v6.82h-2.88l-.24-1.23h-.1a7.44,7.44,0,0,1-1.6,1.09A4.09,4.09,0,0,1,404.07,151Zm1.2-2.73a1.91,1.91,0,0,0,1-.27,4.7,4.7,0,0,0,.91-.74v-2.09a6.36,6.36,0,0,0-2.59.77,1.46,1.46,0,0,0-.72,1.2,1,1,0,0,0,.37.85A1.6,1.6,0,0,0,405.27,148.29Z"/><path class="cls-13" d="M425.57,25.41a7,7,0,0,1-2.71-.52,6.74,6.74,0,0,1-3.69-3.7,7.66,7.66,0,0,1,0-5.65,6.85,6.85,0,0,1,1.48-2.23,6.76,6.76,0,0,1,2.21-1.46,7,7,0,0,1,2.71-.52,6.88,6.88,0,0,1,2.68.52,6.72,6.72,0,0,1,2.2,1.46,7,7,0,0,1,1.48,2.23,7.66,7.66,0,0,1,0,5.65,6.9,6.9,0,0,1-1.48,2.23,6.74,6.74,0,0,1-2.2,1.47A6.88,6.88,0,0,1,425.57,25.41Zm0-1.71a4.78,4.78,0,0,0,3.59-1.44,5.39,5.39,0,0,0,1.39-3.89,5.37,5.37,0,0,0-1.39-3.89A4.79,4.79,0,0,0,425.57,13a5.1,5.1,0,0,0-2,.39A4.64,4.64,0,0,0,422,14.5a4.7,4.7,0,0,0-1,1.67,6.31,6.31,0,0,0-.36,2.2,6.29,6.29,0,0,0,.36,2.19,4.74,4.74,0,0,0,1,1.68,4.94,4.94,0,0,0,1.58,1.08A5.28,5.28,0,0,0,425.57,23.7Zm-2.83-1.95V14.88h3.11a3.49,3.49,0,0,1,2,.56,2,2,0,0,1,.8,1.74,2,2,0,0,1-1.22,1.89l1.43,2.68h-2.09l-1.05-2.09h-1v2.09Zm2-3.49h.73a.95.95,0,0,0,1.05-1,.91.91,0,0,0-.26-.65,1.11,1.11,0,0,0-.79-.26h-.73Z"/></svg>